<svg id="Capa_1" data-name="Capa 1" xmlns="http://www.w3.org/2000/svg" xmlns:xlink="http://www.w3.org/1999/xlink" viewBox="0 0 720 720"><defs><style>.cls-1,.cls-4{fill:none;}.cls-2{fill:url(#Degradado_sin_nombre_8);}.cls-3{clip-path:url(#clip-path);}.cls-4{stroke:#3636ad;stroke-miterlimit:10;stroke-width:14px;}.cls-5{fill:#ed1c24;}.cls-6{fill:#f15a24;}.cls-7{font-size:35.77px;}.cls-12,.cls-14,.cls-7,.cls-8{fill:#fff;}.cls-7,.cls-8{font-family:Montserrat-SemiBold, Montserrat;font-weight:600;}.cls-8{font-size:54.85px;}.cls-9{letter-spacing:0.02em;}.cls-10{letter-spacing:0em;}.cls-11{letter-spacing:0.02em;}.cls-12{font-size:26.82px;font-family:Montserrat-Thin, Montserrat;font-weight:200;}.cls-13{letter-spacing:0em;}.cls-14{font-size:35.44px;font-family:Montserrat-Regular, Montserrat;letter-spacing:0em;}.cls-15{letter-spacing:0em;}</style><linearGradient id="Degradado_sin_nombre_8" x1="38.05" y1="496.66" x2="682.64" y2="223.05" gradientUnits="userSpaceOnUse"><stop offset="0" stop-color="#070793"/><stop offset="0.01" stop-color="#090793"/><stop offset="0.28" stop-color="#29078a"/><stop offset="0.54" stop-color="#400884"/><stop offset="0.79" stop-color="#4e0880"/><stop offset="1" stop-color="#53087f"/></linearGradient><clipPath id="clip-path"><rect class="cls-1" x="47.05" y="166.87" width="625.9" height="386.27" rx="44.33"/></clipPath></defs><rect class="cls-2" x="47.05" y="166.87" width="625.9" height="386.27" rx="44.33"/><g class="cls-3"><path class="cls-4" d="M-202.83,379.74c-11.43,17.6-30.85,41-12.5,59.31,12.61,12.59,31.81,22.23,46.8,32,22.42,14.55,70.15,31.76,78.05,59.27s-4.3,44.59,24.57,62.63c27.6,17.27,56.45,32.66,84.27,49.61,38.06,23.18,74.88,34.56,118.38,44.69,23.16,5.39,46.91,10.33,69.14,19s38.65,21.27,62.9,26.62c28.57,6.31,57.78,9.31,86.58,14.3,24.05,4.17,51,7.7,69.35,25.08,25.72,24.39,47.74,54.46,69.66,82.22"/><path class="cls-4" d="M-16.35,249.74c-1.09,35.2-60.93,88.2-24.68,114.92,28.66,21.12,61.9,37.35,91.58,57.17,11,7.38,24.68,14.39,28.49,28.13,3.41,12.28-2.12,25.53-4,37.6-4.57,30.21,18.44,43.65,37.65,63.23,18.26,18.6,34,40.56,53,58.29,32,29.93,84.31,34.47,122.35,54.24,18.4,9.56,30.59,25.36,50.43,32.56,27,9.81,56.45,13.31,84.47,19.21,26,5.47,52.26,10.37,70.82,30.58,12.71,13.84,24.52,28.57,37.2,42.47"/><path class="cls-4" d="M112.25,143.12c12.78,9.3,36.9,20.54,35.63,38.86-1.65,23.54-27.11,48.18-39.55,66.71-10.54,15.72-25.67,35.44-13.94,53.8,7.72,12.08,21,22.72,30.4,33.62,14.72,17,45.82,43.28,48.32,66.47,3,28.16-29.33,52-19.42,80.51,7.79,22.4,33.65,45.35,48.86,63.41,8.91,10.57,17.61,22.28,27.89,31.56,15.68,14.15,36.24,20.64,56,27.17,25.24,8.35,51.29,14.59,76,24.4,20.53,8.15,37.33,21.31,58.62,27.56,60.12,17.65,134.27,5.69,184.5,47.93"/><path class="cls-4" d="M178.1,64c16.94,20.84,61,59,49.15,87.59-9.55,23.1-29.53,42.63-44.4,62.3-11.23,14.86-31,37-22.38,56.65,10.34,23.44,40,48.07,57.47,66.39,8.82,9.24,22.78,19.07,27,31.35,4,11.65-.12,24.28-2.84,35.65-2.45,10.22-5.65,21-2.57,31.37,3.93,13.23,17.78,21.62,27.91,30.14C291,485.26,314,507,338.76,525.4c39.44,29.32,93.08,33.28,138.59,49.25,22.68,8,41.33,23.17,64.41,29.63,40.19,11.24,83.55,13.55,124.66,20.41"/><path class="cls-4" d="M205.86,1.38c30.94,13.31,54.47,49.18,79.44,72.11,12.46,11.43,27.94,19.15,26.22,37.34-2,21.08-22.95,42.88-34.31,59.92-8.78,13.18-25.51,34.58-17.3,51.23,5.54,11.22,23,21.35,32.68,29.52,21.16,17.79,53.59,36.56,68.8,59.6,14.3,21.67-6.51,45.37-1.82,68.34,4.8,23.48,43.24,45.13,60.84,59.93,31.62,26.6,56.76,46.72,97.33,58.9,29,8.69,58.89,14.75,87.2,25.49a165.25,165.25,0,0,1,28,14c17,10.4,31.81,13.81,51.55,18.12"/><path class="cls-4" d="M202.15-49.48c36.73-.67,86.54-8.06,121.75,5.25C340.46-38,354.81-21.8,368.24-10.5c18.06,15.19,68.69,43.79,64,70C428.81,79,411.84,97,401.1,112.89c-8.55,12.66-27.83,35.85-22,52.94,3.95,11.53,22.29,22.5,31.45,30.21l34.1,28.67c19.46,16.38,45.77,30.08,41.91,58.86-1.65,12.28-7.82,24.45-7.09,37,.92,15.88,11.37,23.28,22.63,32.81C527.6,375,552.62,397.71,579,418.09c44.76,34.51,109.58,37.26,161,58.46"/><path class="cls-4" d="M227.68-112.67c36.55,13.58,76.46,10.34,114.93,9.64,31.75-.58,71.15-5.58,101.48,6.06,28.5,11,55.14,41.94,78.69,61.75,10.66,9,29.66,19.12,30.6,34.18,1.11,17.77-15.1,36.44-24.41,50.26S497.42,87.29,498.59,106c.92,14.91,17.25,23.83,27.67,32.6,22.08,18.57,45.79,36.21,66.68,56.08,24.3,23.12,8.32,40.49,7.52,69.36-.79,29.16,37.77,49.1,57.71,65.87q18.9,15.9,37.79,31.78c24.36,20.38,54.09,27.65,84.2,36.13"/></g><path class="cls-5" d="M549.16,447.48a42.92,42.92,0,1,0,0,57.52,42.72,42.72,0,0,1,0-57.52Z"/><path class="cls-6" d="M581,433.32a42.74,42.74,0,0,0-31.79,14.16,42.72,42.72,0,0,1,0,57.52A42.9,42.9,0,1,0,581,433.32Z"/><ellipse class="cls-5" cx="549.16" cy="476.24" rx="11.13" ry="28.76"/><text class="cls-7" transform="translate(132.12 484.41)">John Doe</text><text class="cls-8" transform="translate(135.03 401.25)"><tspan class="cls-9">***</tspan><tspan class="cls-10" x="71.73" y="0">* </tspan><tspan class="cls-9" x="109.68" y="0">***</tspan><tspan x="181.42" y="0">* </tspan><tspan class="cls-11" x="219.37" y="0">*</tspan><tspan x="243.28" y="0">*</tspan><tspan class="cls-9" x="266.09" y="0">*</tspan><tspan x="290.01" y="0">* 1234</tspan></text><text class="cls-12" transform="translate(445.07 244.53)"><tspan class="cls-13">R</tspan><tspan x="19.07" y="0">andom Bank</tspan></text><text class="cls-14" transform="translate(345.17 484.41)">0<tspan class="cls-15" x="23.39" y="0">1/30</tspan></text></svg>